<mxfile host="app.diagrams.net" agent="Mozilla/5.0 (Windows NT 10.0; Win64; x64) AppleWebKit/537.36 (KHTML, like Gecko) Chrome/130.0.0.0 Safari/537.36 Edg/130.0.0.0" version="24.8.3">
  <diagram name="Page-1" id="tYU58u2owK7ryAxgh6hC">
    <mxGraphModel dx="2910" dy="942" grid="1" gridSize="10" guides="1" tooltips="1" connect="1" arrows="1" fold="1" page="1" pageScale="1" pageWidth="850" pageHeight="1100" math="0" shadow="0">
      <root>
        <mxCell id="0" />
        <mxCell id="1" parent="0" />
        <mxCell id="efbvEh3VQYQbqUJYlht_-15" style="edgeStyle=orthogonalEdgeStyle;rounded=0;orthogonalLoop=1;jettySize=auto;html=1;exitX=0.5;exitY=1;exitDx=0;exitDy=0;entryX=0.5;entryY=0;entryDx=0;entryDy=0;" edge="1" parent="1" source="0KlV3n1kMuCpsgqu7Pv1-2" target="efbvEh3VQYQbqUJYlht_-6">
          <mxGeometry relative="1" as="geometry" />
        </mxCell>
        <mxCell id="0KlV3n1kMuCpsgqu7Pv1-2" value="Main Tracker" style="swimlane;whiteSpace=wrap;html=1;startSize=23;" parent="1" vertex="1">
          <mxGeometry x="300" y="90" width="210" height="220" as="geometry" />
        </mxCell>
        <mxCell id="0KlV3n1kMuCpsgqu7Pv1-3" value="&lt;b&gt;Database&lt;/b&gt;" style="rounded=0;whiteSpace=wrap;html=1;" parent="0KlV3n1kMuCpsgqu7Pv1-2" vertex="1">
          <mxGeometry x="40" y="50" width="120" height="60" as="geometry" />
        </mxCell>
        <mxCell id="efbvEh3VQYQbqUJYlht_-10" style="edgeStyle=orthogonalEdgeStyle;rounded=0;orthogonalLoop=1;jettySize=auto;html=1;exitX=1;exitY=0.25;exitDx=0;exitDy=0;entryX=0;entryY=0.5;entryDx=0;entryDy=0;" edge="1" parent="1" source="efbvEh3VQYQbqUJYlht_-1" target="0KlV3n1kMuCpsgqu7Pv1-2">
          <mxGeometry relative="1" as="geometry" />
        </mxCell>
        <mxCell id="efbvEh3VQYQbqUJYlht_-11" style="edgeStyle=orthogonalEdgeStyle;rounded=0;orthogonalLoop=1;jettySize=auto;html=1;exitX=1;exitY=0.75;exitDx=0;exitDy=0;entryX=0;entryY=0.75;entryDx=0;entryDy=0;" edge="1" parent="1" source="efbvEh3VQYQbqUJYlht_-1" target="efbvEh3VQYQbqUJYlht_-6">
          <mxGeometry relative="1" as="geometry" />
        </mxCell>
        <mxCell id="efbvEh3VQYQbqUJYlht_-30" style="edgeStyle=orthogonalEdgeStyle;rounded=0;orthogonalLoop=1;jettySize=auto;html=1;exitX=0.75;exitY=1;exitDx=0;exitDy=0;entryX=0;entryY=0.5;entryDx=0;entryDy=0;" edge="1" parent="1" source="efbvEh3VQYQbqUJYlht_-1" target="efbvEh3VQYQbqUJYlht_-12">
          <mxGeometry relative="1" as="geometry" />
        </mxCell>
        <mxCell id="efbvEh3VQYQbqUJYlht_-1" value="Proxy" style="swimlane;whiteSpace=wrap;html=1;startSize=23;" vertex="1" parent="1">
          <mxGeometry x="50" y="220" width="180" height="220" as="geometry" />
        </mxCell>
        <mxCell id="efbvEh3VQYQbqUJYlht_-2" value="&lt;b&gt;LoadBalancer&lt;/b&gt;" style="rounded=0;whiteSpace=wrap;html=1;" vertex="1" parent="efbvEh3VQYQbqUJYlht_-1">
          <mxGeometry x="30" y="50" width="120" height="60" as="geometry" />
        </mxCell>
        <mxCell id="efbvEh3VQYQbqUJYlht_-5" value="&lt;b&gt;HealthChecker&lt;/b&gt;" style="rounded=0;whiteSpace=wrap;html=1;" vertex="1" parent="efbvEh3VQYQbqUJYlht_-1">
          <mxGeometry x="30" y="140" width="120" height="60" as="geometry" />
        </mxCell>
        <mxCell id="efbvEh3VQYQbqUJYlht_-16" style="edgeStyle=orthogonalEdgeStyle;rounded=0;orthogonalLoop=1;jettySize=auto;html=1;exitX=0.75;exitY=0;exitDx=0;exitDy=0;entryX=0.75;entryY=1;entryDx=0;entryDy=0;" edge="1" parent="1" source="efbvEh3VQYQbqUJYlht_-6" target="0KlV3n1kMuCpsgqu7Pv1-2">
          <mxGeometry relative="1" as="geometry" />
        </mxCell>
        <mxCell id="efbvEh3VQYQbqUJYlht_-6" value="Backup Tracker" style="swimlane;whiteSpace=wrap;html=1;startSize=23;" vertex="1" parent="1">
          <mxGeometry x="300" y="400" width="210" height="220" as="geometry" />
        </mxCell>
        <mxCell id="efbvEh3VQYQbqUJYlht_-21" value="&lt;b&gt;Database&lt;/b&gt;" style="rounded=0;whiteSpace=wrap;html=1;" vertex="1" parent="efbvEh3VQYQbqUJYlht_-6">
          <mxGeometry x="40" y="50" width="120" height="60" as="geometry" />
        </mxCell>
        <mxCell id="0KlV3n1kMuCpsgqu7Pv1-5" value="&lt;b&gt;Request Handler&lt;/b&gt;" style="rounded=0;whiteSpace=wrap;html=1;" parent="efbvEh3VQYQbqUJYlht_-6" vertex="1">
          <mxGeometry x="40" y="130" width="120" height="60" as="geometry" />
        </mxCell>
        <mxCell id="efbvEh3VQYQbqUJYlht_-12" value="Backup tracker 2" style="swimlane;whiteSpace=wrap;html=1;startSize=23;" vertex="1" parent="1">
          <mxGeometry x="290" y="680" width="210" height="220" as="geometry" />
        </mxCell>
        <mxCell id="efbvEh3VQYQbqUJYlht_-22" value="&lt;b&gt;Database&lt;/b&gt;" style="rounded=0;whiteSpace=wrap;html=1;" vertex="1" parent="efbvEh3VQYQbqUJYlht_-12">
          <mxGeometry x="45" y="50" width="120" height="60" as="geometry" />
        </mxCell>
        <mxCell id="efbvEh3VQYQbqUJYlht_-23" value="&lt;b&gt;Request Handler&lt;/b&gt;" style="rounded=0;whiteSpace=wrap;html=1;" vertex="1" parent="efbvEh3VQYQbqUJYlht_-12">
          <mxGeometry x="45" y="130" width="120" height="60" as="geometry" />
        </mxCell>
        <mxCell id="efbvEh3VQYQbqUJYlht_-32" style="edgeStyle=orthogonalEdgeStyle;rounded=0;orthogonalLoop=1;jettySize=auto;html=1;exitX=1;exitY=0.5;exitDx=0;exitDy=0;entryX=0;entryY=0.75;entryDx=0;entryDy=0;" edge="1" parent="1" source="efbvEh3VQYQbqUJYlht_-24" target="efbvEh3VQYQbqUJYlht_-1">
          <mxGeometry relative="1" as="geometry" />
        </mxCell>
        <mxCell id="efbvEh3VQYQbqUJYlht_-24" value="Client" style="swimlane;whiteSpace=wrap;html=1;startSize=23;" vertex="1" parent="1">
          <mxGeometry x="-430" y="300" width="210" height="130" as="geometry" />
        </mxCell>
        <mxCell id="efbvEh3VQYQbqUJYlht_-25" value="&lt;b&gt;Metadata File&lt;/b&gt;" style="rounded=0;whiteSpace=wrap;html=1;" vertex="1" parent="efbvEh3VQYQbqUJYlht_-24">
          <mxGeometry x="40" y="50" width="120" height="60" as="geometry" />
        </mxCell>
      </root>
    </mxGraphModel>
  </diagram>
</mxfile>
